<?xml version="1.0" encoding="UTF-8"?>
<svg id="Layer_1" data-name="Layer 1" xmlns="http://www.w3.org/2000/svg" xmlns:xlink="http://www.w3.org/1999/xlink" viewBox="0 0 1627.56 385.62">
  <defs>
    <style>
      .cls-1 {
        fill: url(#linear-gradient-2);
      }

      .cls-2 {
        mask: url(#mask-1);
      }

      .cls-3 {
        mask: url(#mask);
      }

      .cls-4 {
        fill: none;
      }

      .cls-5 {
        fill: url(#linear-gradient-4);
      }

      .cls-6 {
        mask: url(#mask-2);
      }

      .cls-7 {
        fill: url(#linear-gradient-3);
      }

      .cls-8 {
        clip-path: url(#clippath-1);
      }

      .cls-9 {
        fill: url(#linear-gradient-5);
      }

      .cls-10 {
        fill: url(#linear-gradient-6);
      }

      .cls-11 {
        clip-path: url(#clippath-2);
      }

      .cls-12 {
        fill: #002e63;
      }

      .cls-13 {
        fill: url(#linear-gradient);
      }

      .cls-14 {
        clip-path: url(#clippath);
      }
    </style>
    <clipPath id="clippath">
      <path class="cls-4" d="M615.77,5.91c-6.61-3.11-13.7-4.68-21.05-4.68-27.29,0-49.54,22.2-49.57,49.49-.03,10.88,3.58,21.49,10.2,30.14l-42.4,63.87c-4.05-1.05-8.21-1.59-12.39-1.59-19.11,0-36.73,11.16-44.89,28.44-7.9,16.86-5.7,36.63,5.46,51.19l-42.35,63.84c-4.08-1.07-8.26-1.62-12.5-1.62-5.7,0-11.37.99-16.84,2.95-12.47,4.47-22.46,13.54-28.16,25.54-11.66,24.78-.99,54.43,23.76,66.12,6.72,3.16,13.86,4.78,21.18,4.78,5.67,0,11.32-.99,16.81-2.95,12.44-4.47,22.46-13.57,28.13-25.57,7.95-16.91,5.78-36.73-5.46-51.32l42.38-63.87c4.08,1.07,8.23,1.59,12.42,1.59,5.73,0,11.37-.99,16.84-2.95,12.44-4.5,22.41-13.54,28.03-25.49,7.92-16.86,5.75-36.65-5.46-51.22l42.38-63.87c4.05,1.07,8.21,1.59,12.39,1.59,5.73,0,11.4-.99,16.86-2.95,12.47-4.47,22.43-13.57,28.05-25.54,11.58-24.73.89-54.3-23.82-65.93ZM406.34,355.76c-11.66,0-21.12-9.49-21.12-21.12s9.46-21.12,21.1-21.15c11.63.03,21.12,9.52,21.15,21.15,0,11.63-9.46,21.12-21.12,21.12ZM500.53,213.83c-11.66,0-21.12-9.49-21.12-21.12s9.46-21.12,21.12-21.12c11.63.03,21.1,9.49,21.12,21.12,0,11.63-9.46,21.12-21.12,21.12ZM594.73,71.89h-.81c-11.27-.42-20.31-9.73-20.31-21.1s9.46-21.12,21.12-21.12,21.12,9.46,21.12,21.1c-.03,11.63-9.52,21.12-21.12,21.12Z"/>
    </clipPath>
    <linearGradient id="linear-gradient" x1="1103.02" y1="578.34" x2="1121.92" y2="578.34" gradientTransform="translate(-35484.17 18814.45) scale(32.2 -32.2)" gradientUnits="userSpaceOnUse">
      <stop offset="0" stop-color="#fff"/>
      <stop offset=".14" stop-color="#fff"/>
      <stop offset=".36" stop-color="#fff"/>
      <stop offset=".65" stop-color="#fff"/>
      <stop offset=".97" stop-color="#fff"/>
      <stop offset="1" stop-color="#fff"/>
    </linearGradient>
    <mask id="mask" x="355.97" y="0" width="288.89" height="385.62" maskUnits="userSpaceOnUse">
      <rect class="cls-13" x="355.97" width="288.89" height="385.62"/>
    </mask>
    <linearGradient id="linear-gradient-2" x1="1103.02" y1="578.34" x2="1121.92" y2="578.34" gradientTransform="translate(-35484.17 18814.45) scale(32.2 -32.2)" gradientUnits="userSpaceOnUse">
      <stop offset="0" stop-color="#002e63"/>
      <stop offset=".14" stop-color="#01376c"/>
      <stop offset=".36" stop-color="#064e84"/>
      <stop offset=".65" stop-color="#0c75ab"/>
      <stop offset=".97" stop-color="#15aae0"/>
      <stop offset="1" stop-color="#16afe5"/>
    </linearGradient>
    <clipPath id="clippath-1">
      <path class="cls-4" d="M438.38,5.91c-6.61-3.11-13.7-4.68-21.05-4.68-27.29,0-49.54,22.2-49.57,49.49-.03,10.88,3.58,21.49,10.2,30.14l-42.4,63.87c-4.05-1.05-8.21-1.59-12.39-1.59-19.11,0-36.73,11.16-44.89,28.44-7.9,16.86-5.7,36.63,5.46,51.19l-42.35,63.84c-4.08-1.07-8.26-1.62-12.5-1.62-5.7,0-11.37.99-16.84,2.95-12.47,4.47-22.46,13.54-28.16,25.54-11.66,24.78-.99,54.43,23.76,66.12,6.72,3.16,13.86,4.78,21.18,4.78,5.67,0,11.32-.99,16.81-2.95,12.44-4.47,22.46-13.57,28.13-25.57,7.95-16.91,5.78-36.73-5.46-51.32l42.38-63.87c4.08,1.07,8.23,1.59,12.42,1.59,5.73,0,11.37-.99,16.84-2.95,12.44-4.5,22.41-13.54,28.03-25.49,7.92-16.86,5.75-36.65-5.46-51.22l42.38-63.87c4.05,1.07,8.21,1.59,12.39,1.59,5.73,0,11.4-.99,16.86-2.95,12.47-4.47,22.43-13.57,28.05-25.54,11.58-24.73.89-54.3-23.82-65.93ZM228.95,355.76c-11.66,0-21.12-9.49-21.12-21.12s9.46-21.12,21.1-21.15c11.63.03,21.12,9.52,21.15,21.15,0,11.63-9.46,21.12-21.12,21.12ZM323.14,213.83c-11.66,0-21.12-9.49-21.12-21.12s9.46-21.12,21.12-21.12c11.63.03,21.1,9.49,21.12,21.12,0,11.63-9.46,21.12-21.12,21.12ZM417.34,71.89h-.81c-11.27-.42-20.31-9.73-20.31-21.1s9.46-21.12,21.12-21.12,21.12,9.46,21.12,21.1c-.03,11.63-9.52,21.12-21.12,21.12Z"/>
    </clipPath>
    <linearGradient id="linear-gradient-3" x1="1102.44" y1="578.34" x2="1121.59" y2="578.34" gradientTransform="translate(-35475.3 18809.87) scale(32.19 -32.19)" xlink:href="#linear-gradient"/>
    <mask id="mask-1" x="174.06" y="0" width="292.81" height="385.62" maskUnits="userSpaceOnUse">
      <rect class="cls-7" x="174.06" width="292.81" height="385.62"/>
    </mask>
    <linearGradient id="linear-gradient-4" x1="1102.44" y1="578.34" x2="1121.59" y2="578.34" gradientTransform="translate(-35475.3 18809.87) scale(32.19 -32.19)" xlink:href="#linear-gradient-2"/>
    <clipPath id="clippath-2">
      <path class="cls-4" d="M261.28,5.91c-6.61-3.11-13.7-4.68-21.05-4.68-27.29,0-49.54,22.2-49.57,49.49-.03,10.88,3.58,21.49,10.2,30.14l-42.4,63.87c-4.05-1.05-8.21-1.59-12.39-1.59-19.11,0-36.73,11.16-44.89,28.44-7.9,16.86-5.7,36.63,5.46,51.19l-42.35,63.84c-4.08-1.07-8.26-1.62-12.5-1.62-5.7,0-11.37.99-16.84,2.95-12.47,4.47-22.46,13.54-28.16,25.54-11.66,24.78-.99,54.43,23.76,66.12,6.72,3.16,13.86,4.78,21.18,4.78,5.67,0,11.32-.99,16.81-2.95,12.44-4.47,22.46-13.57,28.13-25.57,7.95-16.91,5.78-36.73-5.46-51.32l42.38-63.87c4.08,1.07,8.23,1.59,12.42,1.59,5.73,0,11.37-.99,16.84-2.95,12.44-4.5,22.41-13.54,28.03-25.49,7.92-16.86,5.75-36.65-5.46-51.22l42.38-63.87c4.05,1.07,8.21,1.59,12.39,1.59,5.73,0,11.4-.99,16.86-2.95,12.47-4.47,22.43-13.57,28.05-25.54,11.58-24.73.89-54.3-23.82-65.93ZM51.85,355.76c-11.66,0-21.12-9.49-21.12-21.12s9.46-21.12,21.1-21.15c11.63.03,21.12,9.52,21.15,21.15,0,11.63-9.46,21.12-21.12,21.12ZM146.04,213.83c-11.66,0-21.12-9.49-21.12-21.12s9.46-21.12,21.12-21.12c11.63.03,21.1,9.49,21.12,21.12,0,11.63-9.46,21.12-21.12,21.12ZM240.24,71.89h-.81c-11.27-.42-20.31-9.73-20.31-21.1s9.46-21.12,21.12-21.12,21.12,9.46,21.12,21.1c-.03,11.63-9.52,21.12-21.12,21.12Z"/>
    </clipPath>
    <linearGradient id="linear-gradient-5" x1="1102.22" y1="578.34" x2="1121.54" y2="578.34" gradientTransform="translate(-35463.92 18803.97) scale(32.18 -32.18)" xlink:href="#linear-gradient"/>
    <mask id="mask-2" x="0" y="0" width="295.42" height="385.62" maskUnits="userSpaceOnUse">
      <rect class="cls-9" x="0" y="0" width="295.42" height="385.62"/>
    </mask>
    <linearGradient id="linear-gradient-6" x1="1102.22" y1="578.34" x2="1121.54" y2="578.34" gradientTransform="translate(-35463.92 18803.97) scale(32.18 -32.18)" xlink:href="#linear-gradient-2"/>
  </defs>
  <g class="cls-14">
    <g class="cls-3">
      <rect class="cls-1" x="355.97" width="288.89" height="385.62"/>
    </g>
  </g>
  <g class="cls-8">
    <g class="cls-2">
      <rect class="cls-5" x="174.06" width="292.81" height="385.62"/>
    </g>
  </g>
  <path class="cls-12" d="M668.55,200.05c0-62.49,49.04-112.83,108.92-112.83s108.05,50.34,108.05,113.26-48.6,113.26-108.05,113.26-108.92-50.77-108.92-113.7ZM777.47,283.37c41.66,0,75.07-36.88,75.07-82.88s-33.41-82.89-75.07-82.89-75.51,37.32-75.51,82.89,33.41,82.88,75.51,82.88Z"/>
  <path class="cls-12" d="M934.99,92.43h31.24v40.36c17.36-26.04,45.13-45.56,76.81-45.56,54.24,0,102.85,48.6,102.85,113.26s-47.73,113.26-101.54,113.26c-31.68,0-59.02-17.36-76.37-42.96v114.56h-32.98V92.43ZM1039.57,283.81c39.92,0,72.47-37.32,72.47-83.75s-32.55-82.88-72.47-82.88-73.34,36.45-73.34,82.88,31.68,83.75,73.34,83.75Z"/>
  <path class="cls-12" d="M1260.02,313.75c-37.75,0-61.19-23.87-61.19-67.7v-124.55h-29.51v-29.07h29.51V26.47h32.55v65.96h59.02v29.07h-59.02v125.85c0,22.13,12.15,36.45,34.28,36.45,7.81,0,16.49-1.74,24.73-6.08v28.64c-8.24,4.34-18.23,7.38-30.38,7.38Z"/>
  <path class="cls-12" d="M1335.95,13.89h38.62v35.58h-38.62V13.89ZM1338.55,92.43h32.98v216.11h-32.98V92.43Z"/>
  <path class="cls-12" d="M1553.79,197.88c-9.98,3.47-20.83,5.21-30.81,5.21-51.64,0-101.98-43.83-101.98-100.68S1467.87,0,1524.28,0s103.28,45.57,103.28,105.45c0,34.71-16.49,60.75-36.45,91.13l-74.64,111.96h-39.49l76.81-110.66ZM1525.15,174.45c36.45,0,69.87-31.24,69.87-71.17s-33.42-72.04-70.73-72.04-70.74,32.11-70.74,71.6,33.85,71.6,71.6,71.6Z"/>
  <g class="cls-11">
    <g class="cls-6">
      <rect class="cls-10" width="295.42" height="385.62"/>
    </g>
  </g>
</svg>